<svg width="164" height="81" viewBox="0 0 164 81" fill="none" xmlns="http://www.w3.org/2000/svg">
<path d="M109.762 4.94711C109.923 4.46396 109.6 4.2224 109.341 3.98082C108.385 3.09504 107.252 2.49913 106.038 2.0804C104.694 1.61335 103.302 1.24293 101.845 1.54892C101.068 1.70998 100.436 2.03209 99.9181 2.61187C95.385 7.65279 90.8519 12.6937 86.3025 17.7346C82.9675 21.4388 79.6324 25.143 76.3135 28.8633C73.6908 31.7944 71.1004 34.7578 68.4777 37.6889C66.0978 40.3463 63.6693 42.9553 61.2894 45.5965C60.318 46.6756 59.3628 47.7868 58.2133 49.0914L57.7762 48.3022C59.2171 46.7078 60.6418 45.1134 62.0665 43.5351C63.5397 41.8924 65.013 40.2335 66.4863 38.5908C67.3929 37.5923 68.2996 36.5938 69.19 35.5791C70.2747 34.339 71.3108 33.0667 72.3956 31.8266C73.4317 30.651 74.5326 29.5236 75.6011 28.364C77.9163 25.8194 80.2314 23.2587 82.5303 20.698C84.8617 18.1211 87.2092 15.5443 89.5081 12.9353C91.0947 11.1315 92.6004 9.27941 94.1546 7.44342C94.4136 7.13742 94.705 6.84752 94.9803 6.52541C96.2755 5.02763 97.6192 3.56208 98.8334 1.98377C99.9505 0.518201 101.375 -0.0454722 103.14 0.00284323C105.698 0.083369 107.883 1.08189 109.842 2.64409C110.798 3.40103 111.202 4.41564 111.008 5.62353C110.976 5.8329 110.895 6.05838 110.781 6.23553C108.482 9.55319 106.167 12.887 103.852 16.1885C101.731 19.2163 99.5781 22.244 97.4411 25.2718C95.8221 27.5588 94.2193 29.8618 92.6165 32.1649C90.9814 34.5001 89.3786 36.8353 87.7272 39.1706C85.7683 41.9568 83.7769 44.7269 81.8018 47.5131C81.3809 48.1251 80.9923 48.7531 80.4904 49.5101C84.4245 50.7502 88.2129 52.0869 91.2242 55.1469C90.9166 55.4046 90.7062 55.6945 90.4148 55.8555C88.472 56.9346 86.335 57.466 84.1655 57.6593C80.8304 57.9653 77.4792 58.1103 74.1441 58.3035C73.0594 58.3679 71.9746 58.3035 70.8737 58.3518C69.2709 58.4001 67.652 58.5773 66.0492 58.529C63.3131 58.4485 60.577 58.2391 57.841 58.0619C55.0725 57.8848 52.3041 57.5144 49.5033 57.6754C48.7262 57.7237 47.9328 57.6754 47.1395 57.6432C46.8319 57.6432 46.5243 57.5305 46.2329 57.2406C46.3786 57.16 46.5243 57.0473 46.6862 57.0151C47.609 56.8379 48.5481 56.7574 49.4385 56.4997C50.0213 56.3387 50.5232 56.3548 51.0898 56.4514C51.8022 56.5802 52.5145 56.8701 53.2755 56.6286C51.5917 55.9038 49.7461 55.8072 48.0138 55.3241C46.2815 54.8409 44.533 54.4544 42.9464 53.5847V48.882C44.7435 47.3359 53.1783 46.3374 57.5819 46.4179C57.8895 46.4179 58.1809 46.4501 58.2781 46.9333C55.7687 47.1426 53.2755 47.2715 50.8146 47.5936C48.37 47.9318 45.9253 48.3666 43.6102 49.2041C43.4321 50.5086 43.9016 51.4749 44.873 52.5379V50.6858L46.0548 50.8629L46.3786 51.8131L46.9615 52.0064L48.2566 53.4881L47.8195 53.9712L48.6776 54.245C48.9042 53.1338 49.1147 52.103 48.9042 51.0723C48.8071 50.6052 48.4185 50.2026 48.0947 49.6712L49.1957 49.4618C49.6652 48.8015 50.248 48.3827 51.1546 48.3505C53.065 48.3022 54.9754 48.1573 56.8858 48.0445C57.0315 48.0445 57.1772 48.0606 57.3715 48.0767L57.161 48.9786C54.8135 49.1236 52.4174 48.882 50.0537 49.3651C50.588 49.6228 51.1546 49.5101 51.7051 49.5262C52.3041 49.5423 52.9031 49.5262 53.5183 49.5262C54.1497 49.5262 54.7811 49.5262 55.4125 49.5262C56.0115 49.5262 56.6106 49.5262 57.2258 49.5262C57.8248 49.5262 58.4238 49.5262 59.1361 49.5262L59.0066 48.8981C60.7389 46.9977 62.4874 45.0973 64.2197 43.1808C65.9197 41.2965 67.6196 39.38 69.3195 37.4957C71.6508 34.9027 73.9984 32.342 76.3135 29.733C78.1106 27.7198 79.8267 25.6423 81.6237 23.6291C83.2589 21.777 84.9588 19.9732 86.6102 18.1372C88.2129 16.3496 89.8157 14.5619 91.4023 12.7581C93.7174 10.1491 96.0164 7.52393 98.3316 4.9149C98.882 4.3029 99.4162 3.6748 99.9667 3.07891C100.873 2.0965 101.974 1.66165 103.318 1.91934C104.71 2.19312 106.07 2.51524 107.317 3.3205C108.029 3.78755 108.79 4.19018 109.438 4.75386C109.502 4.81828 109.632 4.80217 109.794 4.81827L109.762 4.94711ZM77.4467 52.3285C69.0119 52.1835 60.7713 52.1674 52.5145 51.6843C52.725 51.8937 52.9517 52.0547 53.1783 52.0869C54.7487 52.248 56.3191 52.4251 57.8895 52.5056C60.399 52.6345 62.9246 52.6989 65.434 52.7794C66.5673 52.8116 67.6843 52.8117 68.8176 52.8439C68.9795 52.8439 69.1414 52.9888 69.3033 53.0532L69.2547 53.3109C66.292 53.166 63.3293 53.021 60.3666 52.8922C59.12 52.8278 57.8896 52.7956 56.643 52.7633C56.4972 52.7633 56.3353 52.9405 56.1734 53.0371L56.222 53.2626C57.6791 53.3592 59.12 53.4559 60.5771 53.5686C62.0665 53.6813 63.5398 53.8102 65.0292 53.939C63.1188 54.0356 61.2085 54.0195 59.3143 53.8424C57.4524 53.6813 55.542 53.8263 53.745 53.2465V52.9727H55.4125V52.6989C54.3926 52.3446 53.2593 52.6345 52.1746 52.4251L51.9641 51.7165L50.6851 51.491L50.7175 51.2172C55.7687 51.2655 60.8361 51.6843 65.9034 51.5232C65.693 51.3139 65.4826 51.185 65.2397 51.1689C63.8798 51.1045 62.536 51.0884 61.1761 51.0401C58.3591 50.9595 55.542 50.879 52.725 50.8146C51.9317 50.7985 51.1384 50.7985 50.3613 50.7663C49.908 50.7663 49.6004 50.9596 49.568 51.3783C49.5194 52.1191 49.568 52.86 49.568 53.7297C62.8598 55.163 76.1678 56.4836 89.5567 55.002C89.5567 54.8248 89.6053 54.7282 89.5567 54.6799C89.4596 54.5349 89.3624 54.3416 89.2167 54.2611C87.5492 53.1982 85.8978 52.0547 84.0198 51.3461C82.9351 50.9434 81.8342 50.573 80.7495 50.1382C80.1828 49.9127 79.6486 49.9933 79.0981 50.1221C78.0458 50.3637 76.9934 50.6536 75.9249 50.8307C74.8402 51.024 73.8688 51.7004 72.7032 51.5071C72.687 51.5071 72.6384 51.6199 72.5737 51.7487C73.0917 52.0869 73.6584 51.8776 74.1764 51.9098C74.6945 51.942 75.245 51.9098 75.7468 52.0064C76.2487 52.103 76.8315 51.6682 77.4467 52.3446V52.3285ZM49.6975 50.2348C50.9441 50.4603 52.2231 50.4442 53.4859 50.4603C54.7973 50.4603 56.1087 50.5408 57.42 50.4925C58.699 50.4442 59.978 50.6375 61.2408 50.267C57.3877 50.0093 53.5507 49.9288 49.6813 50.2348H49.6975ZM54.603 56.7413L54.5221 57.0795C55.1211 57.1922 55.7039 57.3533 56.3029 57.4016C56.902 57.4499 57.5172 57.6271 58.1162 57.4983V57.2406L54.603 56.7413Z" fill="black"/>
<path d="M125.53 50.0898C125.74 50.0415 126.016 50.0737 126.161 49.961C127.392 49.043 128.655 48.1572 129.82 47.1587C131.164 46.0152 132.896 45.8058 134.37 46.7399C134.871 47.062 135.406 47.3519 135.891 47.7063C136.199 47.9317 136.442 48.2538 136.798 48.6242C133.868 52.0707 130.581 54.9697 127.57 57.933C127.813 58.8671 128.039 59.7529 128.282 60.6065C128.509 61.3956 128.719 62.2009 129.011 62.9578C129.448 64.1174 130.16 65.0515 131.277 65.6474C131.536 65.7924 131.795 65.9534 131.99 66.1789C132.702 66.9519 132.443 68.0954 131.488 68.4819C129.853 69.1422 128.153 69.5771 126.388 69.8669C125.06 70.0924 123.798 70.6078 122.47 70.8977C119.313 71.6063 116.156 72.2666 112.999 72.9269C112.076 73.1202 111.17 73.3135 110.247 73.4423C107.576 73.8127 104.904 74.1831 102.233 74.5052C100.144 74.7629 98.056 74.9562 95.9675 75.1817C95.8865 75.1817 95.8218 75.1816 95.7409 75.1978C92.4867 75.3588 89.2164 75.5521 85.9622 75.6487C83.4043 75.7131 80.8624 75.6487 78.3045 75.6487C76.5074 75.6487 74.7104 75.6809 72.9133 75.6487C70.8896 75.6165 68.8659 75.5038 66.8421 75.4716C64.2842 75.4393 61.7262 75.5038 59.1682 75.4393C57.1931 75.391 55.2179 75.2139 53.2266 75.085C53.1132 75.085 52.9999 75.0528 52.8866 75.0528C51.7209 75.0528 50.5553 75.085 49.4058 75.0045C48.1592 74.9079 47.2364 75.4232 46.605 76.0674C45.7145 76.4218 45.0022 76.6633 44.3546 76.9693C41.489 78.3383 38.7206 79.9327 35.596 80.7379C34.2198 81.0922 32.8437 80.9956 31.4837 80.9634C31.0628 80.9634 30.4638 80.8829 30.2695 80.3031C30.0914 79.7394 30.318 79.3207 30.6904 78.8858C31.4837 77.984 32.1961 77.0177 32.957 76.0997C33.3132 75.6648 33.7018 75.2622 33.977 74.9562C35.6283 74.9723 37.1178 75.0045 38.6234 75.0045C40.0967 75.0045 41.6023 75.1172 43.0594 74.618C42.7032 74.5858 42.347 74.5536 41.9909 74.5375C39.6272 74.5213 37.2473 74.5374 34.8836 74.473C32.7951 74.4247 30.7066 74.2798 28.6181 74.1992C28.2134 74.1831 27.7925 74.2959 27.3877 74.2798C26.1088 74.2315 24.8297 74.1509 23.5669 74.0543C23.3403 74.0382 23.146 73.8127 22.8708 73.6356C22.1261 73.9416 21.3166 73.9093 20.4909 73.7161C20.0214 73.6033 19.5195 73.6678 19.0338 73.6034C16.4435 73.1846 13.8369 72.8303 11.2627 72.2988C8.6076 71.7513 6.11442 70.7205 3.71834 69.4643C2.71457 68.9328 1.75934 68.4175 0.949853 67.6283C-0.16724 66.5493 -0.28055 65.8246 0.512747 64.6006C1.28986 63.4088 2.39076 62.6679 3.605 62.0721C5.28873 61.2507 7.05341 60.5904 8.91523 60.2683C9.67615 60.1394 10.4533 60.0267 11.2466 59.8979C11.6351 58.6094 12.2503 57.5304 13.3026 56.709C14.7111 55.6139 16.3301 54.9536 18.0462 54.8247C20.4423 54.6476 22.8708 54.6154 25.2669 54.8247C27.4849 55.0019 29.7028 54.9375 31.9046 55.0502C33.815 55.1468 35.7254 55.324 37.6358 55.4367C38.2025 55.4689 38.7691 55.4367 39.3358 55.4367C39.7729 55.4367 40.0481 55.63 39.951 56.2259C39.6919 56.2581 39.4005 56.3386 39.1253 56.3225C35.8874 56.242 32.6656 56.1453 29.4276 56.0487C26.3192 55.9682 23.2108 55.8394 20.1024 55.8394C18.8396 55.8394 17.5768 56.1293 16.314 56.3225C16.0873 56.3547 15.8768 56.548 15.6016 56.6929C15.3426 57.5626 14.7759 58.384 14.695 59.3825C15.3588 58.5933 15.4883 57.4982 16.314 56.8057C17.7387 56.7412 19.1472 56.3547 20.6042 56.6285C20.9928 57.3854 20.4261 57.9491 20.1671 58.4967C19.7947 59.302 19.0338 58.7383 18.451 58.7705C18.0138 58.5772 18.03 57.6592 17.1882 58.0941L16.9453 58.9477L15.9901 58.4967L15.5692 59.3664C15.7797 59.4308 15.8768 59.4791 15.9901 59.4791C17.5605 59.4308 19.131 59.3664 20.7014 59.302L21.3004 58.2712C22.2718 58.0297 38.1377 58.4806 39.5138 58.8188L40.2262 60.381C39.8862 60.4615 39.7081 60.5421 39.53 60.526C38.2511 60.4616 36.9882 60.3971 35.7092 60.3166C34.8512 60.2683 33.9931 60.1233 33.1189 60.1233C28.8286 60.1233 24.5383 60.1233 20.2481 60.1555C17.9977 60.1716 15.7473 60.22 13.4969 60.3649C12.396 60.4454 11.2951 60.7353 10.2104 61.0091C8.1381 61.5567 6.08204 62.1043 4.17165 63.1028C3.49168 63.4571 2.86027 63.9403 2.24506 64.4234C2.01841 64.5845 1.87267 64.8744 1.75934 65.1481C1.59744 65.5186 1.51651 65.9051 1.3708 66.356C1.80793 66.7909 1.8079 66.7909 2.7631 66.3883C3.36212 66.662 3.81543 66.9519 4.3335 67.0808C5.24013 67.3223 6.16297 67.4834 7.08578 67.6445C9.19045 67.9988 11.3113 68.3692 13.4322 68.6269C16.1521 68.949 18.8881 69.1744 21.608 69.416C22.6927 69.5126 23.7774 69.4965 24.8621 69.5771C25.4126 69.6093 25.963 69.7542 26.5297 69.7864C29.7514 69.9636 32.9894 70.0924 36.2111 70.2696C39.0281 70.4145 41.829 70.6239 44.646 70.7688C45.585 70.8171 46.524 70.7044 47.463 70.7366C49.4867 70.785 51.5267 70.8977 53.5504 70.946C54.8294 70.9782 56.1084 70.9621 57.3873 70.9943C60.091 71.0426 62.7947 71.0748 65.4984 71.1393C68.4287 71.2037 71.3591 71.3325 74.2894 71.3647C78.094 71.3969 81.8986 71.4292 85.687 71.3647C89.8639 71.3003 94.0409 71.1393 98.2017 70.9782C101.359 70.8494 104.516 70.6722 107.656 70.4306C110.02 70.2535 112.368 69.9314 114.731 69.6737C116.108 69.5287 117.484 69.3677 119.006 69.2066L118.568 69.8831C118.86 69.8992 119.086 69.9797 119.313 69.9314C120.382 69.7381 121.45 69.4482 122.519 69.3033C124.623 68.9973 126.647 68.3692 128.978 67.8699C128.574 67.725 128.396 67.58 128.25 67.6122C126.08 68.0149 123.911 67.886 121.725 67.8216C120.106 67.7733 118.487 67.6928 116.868 67.5961C115.104 67.4834 113.355 67.3384 111.591 67.2096C109.826 67.0808 108.061 66.968 106.297 66.8231C105.471 66.7587 104.645 66.662 103.82 66.5976C101.877 66.4527 99.9178 66.3399 97.9751 66.1789C96.6313 66.0661 95.2876 65.9212 93.9276 65.8085C93.6038 65.7763 93.3124 65.7279 93.4257 65.2287C94.219 64.971 95.0285 65.132 95.838 65.1642C97.2951 65.2287 98.7683 65.3253 100.225 65.438C101.731 65.5508 103.221 65.6796 104.726 65.8246C106.782 66.0178 108.838 66.2272 110.894 66.4204C111.833 66.501 112.772 66.5493 113.711 66.5976C117.128 66.807 120.544 67.0324 123.96 67.2257C125.109 67.2901 126.258 67.2257 127.424 67.0324C125.141 66.7748 122.842 66.5493 120.56 66.2433C118.245 65.9373 115.946 65.5508 113.647 65.1965C111.348 64.8421 109.049 64.4717 106.718 64.1013L106.361 63.3605L107.754 62.056C107.835 62.0399 107.916 62.0076 107.98 62.0076C109.373 62.0721 110.538 61.7178 111.688 60.7998C114.553 58.4967 117.565 56.3869 120.511 54.1805C120.981 53.8262 121.418 53.4397 121.806 52.9404L120.803 53.3914C120.268 52.7955 120.285 52.2157 120.722 51.4426L123.393 51.958C124.105 51.491 125.06 50.9917 125.611 49.9932L125.579 50.0254L125.53 50.0898ZM7.15055 68.7235V68.7879C8.30003 69.0778 9.4333 69.3999 10.5828 69.6254C13.8855 70.2535 17.2044 70.7688 20.5718 71.0265C23.9393 71.2842 27.3068 71.6385 30.6904 71.8479C34.1874 72.0734 37.6844 72.2022 41.1814 72.3149C46.0707 72.476 50.96 72.6209 55.8493 72.7498C59.6053 72.8464 63.3775 72.9108 67.1336 72.9269C73.1885 72.9592 79.2597 72.9269 85.3147 72.9269C90.2525 72.9269 95.1742 72.7981 100.08 72.3633C103.706 72.0411 107.333 71.6546 110.959 71.2681C112.675 71.0749 114.375 70.801 116.091 70.5434C116.739 70.4467 117.354 70.2696 117.986 70.1246C117.791 69.8831 117.629 69.8186 117.467 69.8508C115.751 70.0602 114.035 70.2857 112.335 70.495C110.328 70.7527 108.304 71.0426 106.297 71.2359C104.127 71.4614 101.958 71.6063 99.7721 71.7513C98.5417 71.8318 97.2951 71.8479 96.0646 71.9284C93.9276 72.0411 91.7905 72.2505 89.6535 72.2827C86.6908 72.331 83.7119 72.2505 80.7491 72.2505C76.7665 72.2505 72.7838 72.2666 68.7849 72.2505C66.6155 72.2505 64.4298 72.17 62.2604 72.1217C59.1358 72.0734 56.0274 72.0411 52.9028 71.9606C48.4344 71.8318 43.966 71.6868 39.4815 71.5097C35.434 71.3486 31.3704 71.1393 27.323 70.9138C26.0602 70.8494 24.7812 70.6561 23.5184 70.5595C21.9803 70.4467 20.4423 70.4145 18.9205 70.2857C17.3177 70.1569 15.7149 69.9797 14.1121 69.7542C12.2179 69.4804 10.3399 69.1261 8.46192 68.8201C8.0248 68.7557 7.58768 68.7557 7.15055 68.7396V68.7235ZM107.802 63.7148C108.417 63.8114 109.033 63.908 109.664 63.9886C110.894 64.1335 112.141 64.2141 113.371 64.3751C117.565 64.9549 121.758 65.6152 125.967 66.1467C127.246 66.3077 128.574 66.1789 130.031 66.1789C128.606 64.8744 128.137 63.1189 127.408 61.444L119.637 61.8949L119.167 62.6357C118.52 62.5552 117.872 62.8934 117.144 62.4425L117.905 62.0076L116.723 61.9271C115.881 62.7968 114.958 63.3444 113.711 63.3122C112.06 63.2799 110.409 63.3122 108.741 63.3122C108.434 63.3122 108.11 63.3605 107.802 63.3766V63.7148ZM127.894 50.0093C126.712 50.4763 117.127 57.6753 116.707 58.4484C120.463 55.6783 124.332 53.037 127.894 50.0093ZM113.663 60.3971C114.505 60.3327 115.104 59.9301 115.411 59.1409L113.663 60.3971ZM130.144 67.6928C130.684 67.1881 130.802 66.6835 130.5 66.1789C130.096 66.6298 130.29 67.1935 130.144 67.6928Z" fill="black"/>
<path d="M125.562 50.0577C125.336 49.9127 124.947 49.8 124.899 49.6067C124.591 48.431 124.348 47.2232 124.057 45.8542C122.875 44.9685 121.126 45.4194 119.75 44.7269C119.281 43.4384 118.666 37.8661 118.909 37.0608C119.815 36.7548 120.495 37.7533 121.483 37.399C120.965 37.0769 120.479 36.7065 119.928 36.4649C118.504 35.8529 116.998 35.5469 115.476 35.3214C114.602 35.1926 113.89 35.5469 113.517 36.32C113.193 36.9803 112.951 37.705 112.773 38.4298C111.72 42.7137 110.684 47.0138 109.632 51.2978C109.373 52.3929 109.049 53.4559 108.774 54.551C108.677 54.9214 108.531 55.163 107.948 55.1308L108.045 53.8102C106.685 54.084 105.342 54.2611 103.998 54.5349C102.638 54.8087 101.262 55.002 99.8856 55.2274C98.5418 55.4529 97.2142 55.7267 95.8705 55.8555C94.5267 55.9844 93.2154 56.4192 91.8554 56.387L91.7259 56.0649C91.9202 55.8877 92.0821 55.6301 92.3249 55.5656C92.8268 55.4046 93.3449 55.2919 93.863 55.2113C96.3076 54.8087 98.7523 54.4222 101.197 54.0034C103.383 53.633 105.568 53.2626 107.738 52.8761C107.916 52.8439 108.078 52.7472 108.32 52.6506C108.482 52.2158 108.693 51.7809 108.806 51.3139C109.421 48.7693 110.02 46.2085 110.636 43.6639C111.235 41.1837 111.736 38.6552 112.659 36.2716C112.902 35.6274 113.339 35.0638 113.647 34.5323C115.606 33.8076 117.322 34.3713 118.989 35.1282C119.767 35.4825 120.447 36.0301 121.159 36.4971C121.256 36.5615 121.321 36.6743 121.434 36.6904C122.859 37.0125 123.231 38.1882 123.506 39.3638C124.089 41.7957 124.607 44.2437 125.158 46.6917C125.32 47.4164 125.53 48.1412 125.627 48.882C125.676 49.2685 125.579 49.6712 125.53 50.0738L125.562 50.0416V50.0577Z" fill="black"/>
<path d="M122.227 16.0273C122.276 15.3992 122.648 15.206 123.037 15.0771C125.886 14.0142 128.752 13.2411 131.828 14.0464C133.463 14.4651 134.952 15.1576 136.247 16.2045C138.465 17.9599 140.182 20.118 141.153 22.7915C141.703 24.3376 142.189 25.8837 142.043 27.5908C141.93 28.8792 141.493 30.071 141.056 31.2628C140.991 31.4399 140.748 31.5366 140.586 31.6815C140.068 31.3433 140.165 30.8924 140.327 30.5381C141.088 28.8309 140.959 27.1077 140.522 25.3683C140.068 23.5806 139.534 21.793 138.255 20.424C137.235 19.3289 136.361 18.0405 134.839 17.4285C133.916 17.058 133.09 16.4299 132.184 15.9951C131.682 15.7535 131.115 15.6086 130.565 15.5603C128.509 15.4314 126.436 15.2704 124.397 15.8824C123.749 16.0756 123.037 16.3333 122.227 16.0595V16.0273Z" fill="black"/>
<path d="M2.66565 65.0679C3.15135 64.5042 3.84755 64.3109 4.52752 64.166C7.79784 63.4574 11.1005 63.0708 14.4356 62.9259C17.0098 62.797 19.6001 62.797 22.1905 62.7487C23.3885 62.7165 24.6028 62.6682 25.8008 62.7004C28.2455 62.7487 30.6739 62.8615 33.1186 62.9259C36.5022 63.0064 39.8859 63.0547 43.2696 63.1353C43.6581 63.1353 44.0305 63.2158 44.419 63.2641C44.3543 63.86 43.9981 63.9244 43.6581 63.9244C42.0068 63.9244 40.3554 63.8922 38.7041 63.8761C37.1175 63.8761 35.5471 63.8439 33.9605 63.8439C30.9492 63.8117 27.9379 63.7794 24.9428 63.7794C21.721 63.7794 18.483 63.715 15.2613 63.8278C13.2052 63.8922 11.1491 64.1982 9.10919 64.4559C7.58736 64.6491 6.08171 64.9068 4.55988 65.1484C4.18751 65.2128 3.84752 65.3578 3.49135 65.4705C3.10279 65.5993 2.84374 65.5188 2.66565 65.0679Z" fill="black"/>
<path d="M56.7076 60.236C57.4685 60.5098 58.1809 60.2038 58.7476 60.7191C56.9829 61.009 55.2344 60.6708 53.4697 60.6708C51.624 60.6708 49.7946 60.6225 47.949 60.5903C46.1519 60.5581 44.371 60.5097 42.5902 60.4775C42.2664 59.8333 42.5578 59.3985 42.833 58.9154C43.7396 58.9154 44.6301 58.8831 45.5205 58.9154C48.6775 59.0442 51.8345 59.2214 54.9915 59.318C55.801 59.3341 56.3839 59.5434 56.6915 60.2521L56.7076 60.236Z" fill="black"/>
<path d="M160.888 41.9728C160.775 41.5218 160.71 41.087 160.548 40.6844C160.257 39.9274 160.03 39.1061 159.577 38.4457C158.816 37.3023 157.537 36.9157 156.242 36.8352C154.72 36.7386 153.247 37.0124 152.016 38.0431C151.644 38.3491 151.239 38.6551 150.656 38.2042C151.158 37.4311 151.968 37.109 152.696 36.7064C154.121 35.9011 155.724 35.8367 157.294 35.8206C157.958 35.8206 158.719 36.1105 159.285 36.4809C160.84 37.4955 161.811 38.9128 161.779 40.8454C161.779 41.3286 161.779 41.9244 160.888 41.9889V41.9728Z" fill="black"/>
<path d="M151.887 35.74C151.774 35.4018 151.644 35.1281 151.595 34.8543C151.175 32.519 148.552 30.828 146.399 30.828C145.217 30.828 144.084 30.8119 142.966 31.2628C142.724 31.3594 142.416 31.3111 141.882 31.3433C142.125 30.9407 142.205 30.6508 142.367 30.5864C143.209 30.2804 144.067 30.0227 144.925 29.7811C145.249 29.6845 145.605 29.7328 145.913 29.6201C147.386 29.0886 148.633 29.6523 149.798 30.4414C150.268 30.7474 150.656 31.1662 151.077 31.5366C152.081 32.4224 152.292 33.6464 152.421 34.8865C152.454 35.2086 152.454 35.5629 151.855 35.7561L151.887 35.74Z" fill="black"/>
<path d="M153.781 31.6013C153.83 31.3436 153.797 31.0054 153.959 30.8604C154.461 30.3611 155.012 29.9263 155.578 29.4915C156.339 28.9117 157.246 28.6218 158.185 28.5574C159.383 28.4608 160.581 28.4285 161.714 28.9439C162.88 29.4754 163.592 30.4095 163.965 31.6013C164.046 31.8589 163.965 32.1649 163.948 32.3904C163.349 32.6159 163.171 32.2777 162.961 31.9556C161.989 30.3773 160.613 29.6203 158.735 29.8297C157.327 29.9907 155.999 30.3289 154.931 31.3436C154.704 31.5529 154.38 31.6657 154.105 31.8267L153.798 31.6335L153.781 31.6013Z" fill="black"/>
<path d="M110.765 20.7624C110.554 20.086 110.749 19.7961 111.024 19.5223C114.035 16.6394 117.726 17.2836 119.993 20.0215C120.252 20.3275 120.398 20.7302 120.511 21.1167C120.56 21.2777 120.382 21.5032 120.268 21.777C119.993 21.5676 119.734 21.471 119.605 21.2777C118.925 20.3436 118.099 19.6994 116.901 19.474C116.286 19.3612 115.768 18.8137 115.039 18.8781C113.809 18.9908 112.692 19.2807 111.736 20.1181C111.477 20.3436 111.153 20.5047 110.765 20.7624Z" fill="black"/>
<path d="M67.7811 64.2141C67.8621 63.2639 68.3802 62.5392 69.1087 62.4587C69.9992 62.3459 70.6791 62.9096 70.9058 63.892C71.0839 64.6812 70.841 65.3737 70.4039 65.9857C69.8697 66.7265 68.6392 66.6138 68.2507 65.7924C68.024 65.2932 67.9431 64.7295 67.7973 64.198L67.7811 64.2141Z" fill="black"/>
<path d="M65.2394 64.359C65.2394 65.2609 64.6566 65.9856 63.8471 66.1306C63.0862 66.2594 62.4062 65.7763 62.1958 64.826C62.0824 64.3429 62.0824 63.7792 62.1958 63.296C62.4872 62.1365 63.7823 61.8627 64.6404 62.7324C65.0775 63.1833 65.2394 63.747 65.2394 64.359Z" fill="black"/>
<path d="M73.4151 64.5525C73.4151 63.5862 73.8846 62.9419 74.6131 62.8453C75.4226 62.7326 76.1673 63.1835 76.4264 64.0049C76.5235 64.3109 76.5721 64.6652 76.5559 64.9873C76.4911 65.9214 75.795 66.6784 75.0664 66.6623C74.3865 66.6623 73.5608 65.8248 73.4475 65.0356C73.4151 64.8585 73.4151 64.6652 73.4151 64.5525Z" fill="black"/>
<path d="M53.7124 63.4895C53.6477 63.8116 53.6315 64.1498 53.5344 64.4719C53.3401 65.1322 52.9839 65.4221 52.3525 65.4382C51.7697 65.4543 51.203 65.3093 50.9926 64.6812C50.8307 64.1659 50.6688 63.6183 50.6688 63.0707C50.6688 62.1044 51.1059 61.6373 51.9639 61.589C52.7896 61.5407 53.5667 62.1849 53.6639 63.0224C53.68 63.1673 53.6639 63.3123 53.6639 63.4733H53.7124V63.4895Z" fill="black"/>
<path d="M46.0056 61.3313C47.0093 61.3313 47.5436 61.75 47.8188 62.4748C48.0455 63.0707 47.9646 63.6504 47.7865 64.2302C47.6408 64.7456 47.3169 65.0838 46.7827 65.1643C46.2646 65.2449 45.7303 65.1321 45.4713 64.6973C45.018 63.9242 44.678 63.1029 45.018 62.1527C45.2284 61.5568 45.6332 61.3313 46.0056 61.3313Z" fill="black"/>
<path d="M56.7238 62.2816C57.7923 61.7984 58.4399 61.8467 58.9418 62.4265C59.6055 63.1835 59.5894 64.3752 58.9094 65.5348C57.8894 65.9535 57.5818 65.9374 56.9342 65.2127C56.1248 64.3269 56.2543 63.3284 56.74 62.2816H56.7238Z" fill="black"/>
<path d="M80.3608 63.1994C81.1379 63.2155 81.7045 63.5054 81.8988 64.3428C82.1093 65.2447 82.0284 66.05 81.3322 66.6942C80.7818 67.2095 79.9561 67.1129 79.4542 66.517C78.4666 65.3091 78.8552 63.8919 80.3608 63.1994Z" fill="black"/>
<path d="M84.1812 65.4058C84.1812 64.1979 84.6831 63.5537 85.4602 63.5054C86.3344 63.4571 86.9172 64.0208 87.063 65.0032C87.1601 65.6474 86.9496 66.1949 86.5449 66.6459C85.8973 67.4028 84.845 67.2418 84.4402 66.3399C84.2783 65.9695 84.2298 65.5668 84.1812 65.4058Z" fill="black"/>
<path d="M91.3374 67.3546C90.6736 67.4835 90.0584 67.3869 89.7184 66.7265C89.3622 66.0018 89.2813 65.2127 89.7508 64.4879C90.2365 63.7471 91.5641 63.7954 92.0497 64.5362C92.6488 65.4381 92.4059 66.4044 91.3374 67.3546Z" fill="black"/>
<path d="M152.421 41.5865C152.211 41.4093 151.936 41.2321 151.741 41.0067C150.624 39.6377 149.07 39.3639 147.483 40.2497C147.143 40.443 146.722 40.4913 146.334 40.5557C146.237 40.5718 146.107 40.4108 145.994 40.3303C146.82 39.0902 149.556 38.301 151.223 39.1224C151.741 39.3801 152.243 39.7505 152.648 40.1692C153.069 40.5879 153.101 41.0872 152.421 41.5865Z" fill="black"/>
<path d="M40.8898 61.0414C40.8898 60.51 40.8575 60.1073 40.8898 59.7047C40.9384 59.3182 41.0517 58.9478 41.165 58.4807L40.7117 57.9815L41.2298 56.7736L40.5337 56.3065L41.4403 54.7282L40.6146 54.8248L41.2298 52.6345L42.1364 52.4574C42.3145 53.1177 41.6993 53.4881 41.6022 54.0357L42.3469 54.2128L41.5051 55.9039L42.0069 56.4998L41.5051 57.9009L41.9584 58.3841L41.3108 59.7047C41.559 60.2737 41.4241 60.714 40.906 61.0253L40.8898 61.0414Z" fill="black"/>
<path d="M42.8165 45.0492C42.266 45.8061 42.1203 46.7724 41.1651 47.1589C40.728 46.4503 41.4565 46.0638 41.5375 45.4679L40.9708 45.1458L41.4403 43.9218L41.1165 43.3742L41.4889 42.4884L41.1975 41.6188L41.8613 41.3289L42.5251 43.7285L42.0393 44.5499L42.8326 45.0653L42.8165 45.0492Z" fill="black"/>
<path d="M37.9435 50.6698L40.3881 49.784C40.7281 50.7665 40.7767 51.6039 40.3881 52.5863C39.9348 52.4253 39.5139 52.2965 39.1254 52.1354C38.753 51.9744 38.3968 51.7811 37.9273 51.5556V50.6698H37.9435Z" fill="black"/>
<path d="M106.896 61.1379C106.604 60.9286 106.475 60.8642 106.491 60.848C106.879 59.3664 107.284 57.8686 107.689 56.3869L107.948 56.3547C108.013 56.548 108.191 56.7734 108.142 56.9345C107.818 58.1907 107.462 59.4469 107.106 60.7031C107.074 60.848 106.976 60.9769 106.896 61.1379Z" fill="black"/>
<path d="M47.7382 56.3387C46.3945 56.5803 45.0183 56.3226 43.6584 56.4193C43.4803 56.4193 43.2861 56.2743 43.027 56.1616C43.4641 55.4046 44.0793 55.8073 44.565 55.7751C45.0831 55.7267 45.6012 55.8556 46.1354 55.8878C46.6697 55.92 47.204 55.92 47.7382 55.9361V56.3387Z" fill="black"/>
<path d="M38.5906 47.5291C39.5782 47.7385 39.8049 48.4632 40.0963 49.1718C39.4164 49.655 39.2382 48.9302 38.8983 48.737C38.4611 48.4954 38.283 48.1089 38.5906 47.5291Z" fill="black"/>
<path d="M42.6382 46.5949C42.4277 47.6417 42.1039 48.3825 41.4402 48.9784C41.003 48.3825 41.4563 47.384 42.6382 46.5949Z" fill="black"/>
<path d="M41.3272 50.9273C41.2948 49.8966 41.8129 49.4296 42.3633 48.7693C42.2338 49.8161 42.1366 50.0416 41.3272 50.9273Z" fill="black"/>
<path d="M49.8914 63.5698C48.9524 64.1335 48.9038 64.1174 48.7258 63.2316C49.1953 62.8773 49.5191 63.0867 49.8914 63.5698Z" fill="black"/>
<path d="M66.1135 64.6004L66.1944 63.924C66.6639 63.7629 66.9715 63.8113 67.1172 64.2944C66.9391 64.7293 66.6154 64.7293 66.0973 64.5843L66.1135 64.6004Z" fill="black"/>
<path d="M55.6878 63.4572C55.4773 64.0853 55.1859 64.2463 54.8459 64.0853C54.684 64.0047 54.6193 63.7148 54.3764 63.2639L55.6878 63.4572Z" fill="black"/>
<path d="M61.2081 64.1982L60.2692 64.472L60.2206 63.4735L61.2406 63.8278V64.1982H61.2081Z" fill="black"/>
<path d="M71.5858 64.6327C72.0284 64.2247 72.4115 64.2462 72.7353 64.6972C72.3144 65.0837 71.9744 65.0353 71.5858 64.6327Z" fill="black"/>
<path d="M82.5945 65.0515C82.9939 64.9763 83.3231 65.0246 83.5821 65.1964C82.9993 65.7762 82.9831 65.7762 82.5945 65.0515Z" fill="black"/>
<path d="M78.1424 65.0838C77.7754 65.2234 77.4624 65.1912 77.2034 64.9872C77.5056 64.6222 77.8186 64.6544 78.1424 65.0838Z" fill="black"/>
<path d="M87.7108 65.261C88.2451 64.9711 88.5851 64.8906 88.7308 65.5187C88.3423 65.8408 88.0346 65.8086 87.7108 65.261Z" fill="black"/>
</svg>
