<svg width="58" height="59" viewBox="0 0 58 59" fill="none" xmlns="http://www.w3.org/2000/svg">
<path d="M57.8694 30.4324C57.951 30.2197 57.8205 30.1543 57.7062 30.0724C57.5267 29.9579 57.3472 29.876 57.2003 29.696C56.9228 29.3851 56.7596 28.976 56.4169 28.7142C56.221 28.5505 56.1394 28.2559 55.9436 28.0759C55.8946 28.0268 55.8946 27.9777 55.9436 27.945C56.1884 27.8141 56.0252 27.7159 55.9273 27.6014C55.862 27.5359 55.7314 27.5195 55.7804 27.3886C55.8457 27.2086 55.9109 27.0286 56.0089 26.8649C56.1884 26.5376 56.5638 26.3249 56.4495 25.8012C56.3679 25.4412 56.5801 25.0485 56.7923 24.7048C56.8412 24.623 56.8902 24.5412 56.9718 24.5412C57.1513 24.5084 57.2166 24.3611 57.3145 24.2302C57.4614 24.0175 57.4124 23.7393 57.6083 23.5593C57.6083 23.5593 57.6083 23.5102 57.6083 23.4938C57.3961 23.5102 57.5267 23.3465 57.4777 23.2647C57.4124 23.1502 57.4288 23.0029 57.3798 22.9047C57.2819 22.692 56.9718 22.6756 56.7923 22.872C56.7433 22.9374 56.6617 23.0029 56.5964 22.9538C56.5148 22.8883 56.5964 22.8229 56.6617 22.7901C56.7107 22.7574 56.727 22.7247 56.6943 22.6592C56.5475 22.3647 56.1721 22.1683 55.8457 22.201C55.6661 22.2337 55.356 22.0865 55.3724 21.9555C55.405 21.7592 55.3071 21.7264 55.1765 21.6937C55.0459 21.6446 54.9317 21.6283 54.8175 21.7592C54.7359 21.841 54.6542 21.841 54.54 21.7428C54.3605 21.5628 54.2789 21.3173 54.034 21.1864C53.8872 21.1046 54.0667 20.7936 54.083 20.7936C54.3278 20.7936 54.2462 20.63 54.2299 20.5155C54.1973 20.1063 54.2299 19.7299 54.5889 19.4354C54.8664 19.2226 55.0622 18.9281 54.997 18.5353C54.997 18.4535 54.997 18.3717 54.899 18.3389C54.8501 18.3389 54.7848 18.3389 54.8011 18.2571C54.8174 18.1917 54.8664 18.1589 54.9317 18.1753C55.0786 18.1917 55.1439 18.0935 55.1602 17.9626C55.1765 17.6189 55.2092 17.2916 55.0949 16.9316C54.9154 16.3915 54.4257 16.4079 54.083 16.2115C53.9851 16.1461 53.8545 16.1624 53.7566 16.0479C53.675 15.9333 53.5118 15.8679 53.3159 15.9333C53.1527 15.9824 53.0548 16.1952 52.8263 16.1133C52.7284 16.0806 52.6142 16.0315 52.5162 15.9824C52.2877 15.8679 52.0266 15.9824 51.8308 15.8188C51.6675 15.6879 51.488 15.5897 51.2922 15.5406C51.0474 15.4751 50.9658 15.2951 50.9331 15.0987C50.9005 14.886 50.9168 14.6569 50.9331 14.4442C50.9984 14.0023 51.3411 13.5932 51.0637 13.1186C51.0474 13.0859 51.0637 13.0368 51.0637 12.9877C51.0637 12.824 51.1126 12.6768 51.0963 12.5131C51.0637 12.1858 51.1616 11.8749 51.2432 11.564C51.2922 11.3676 51.3575 11.1221 51.1943 10.9912C51.1126 10.9094 51.08 10.8767 51.0473 10.7621C50.9984 10.5985 50.8352 10.5657 50.7046 10.5166C50.5577 10.4512 50.5577 10.5494 50.5414 10.6475C50.5414 10.713 50.4761 10.6475 50.4435 10.6475C50.3782 10.6148 50.2966 10.5985 50.215 10.5985C49.3663 10.6966 48.5176 10.5821 47.6526 10.533C47.4731 10.533 47.3589 10.3693 47.1793 10.3693C46.7876 10.3693 46.755 10.3203 46.7387 9.9275C46.7387 9.6493 46.7713 9.3711 46.6897 9.0929C46.5428 8.56923 46.4775 8.0292 46.4612 7.4728C46.4612 7.26006 46.4612 7.04731 46.4612 6.83457C46.4612 6.67093 46.4612 6.50728 46.4612 6.34363C46.4123 6.04907 45.7921 5.90179 45.5799 6.16362C45.3677 6.42546 45.0087 6.26181 44.8455 6.52365C44.1437 6.67093 43.4419 6.72002 42.7401 6.9164C42.4463 6.99822 42.2668 6.8673 42.1852 6.57274C42.1525 6.47455 42.1525 6.37636 42.0057 6.37636C41.9077 6.37636 41.9404 6.29454 41.924 6.24545C41.7772 5.98361 41.6955 5.70541 41.565 5.44358C41.4018 5.13265 41.3202 4.80536 41.2386 4.49443C41.108 4.03622 41.108 3.54527 40.8142 3.15252C40.7816 3.11979 40.7653 3.08706 40.7816 3.03797C40.8958 2.80886 40.7 2.72704 40.5694 2.67795C40.3899 2.62885 40.2593 2.67795 40.2593 2.92342C40.2593 3.16889 40.0961 3.33253 39.8676 3.39799C39.6881 3.43072 39.5575 3.52891 39.4107 3.61073C39.3291 3.65983 39.2148 3.72529 39.4107 3.79074C39.5086 3.82347 39.4759 3.88893 39.4107 3.92166C39.3127 3.98712 39.1985 4.06894 39.0679 3.98712C39.0026 3.95439 38.921 3.88893 38.8394 3.93803C38.5946 4.10167 38.3172 4.11804 38.0234 4.10167C37.9091 4.10167 37.8275 4.15077 37.7459 4.23259C37.5501 4.4126 37.289 4.36351 37.0605 4.39624C36.9136 4.4126 36.8972 4.23259 36.7993 4.15077C36.734 4.11804 36.6851 4.05258 36.6361 4.01985C36.5056 3.92166 36.4076 3.79074 36.3913 3.6271C36.3913 3.49618 36.3097 3.39799 36.2607 3.28344C36.0322 2.89069 35.6732 2.57976 35.6895 2.07245C35.6895 2.03972 35.6405 1.99063 35.6242 1.9579C35.4937 1.6797 35.3141 1.43423 35.2978 1.10693C35.2978 0.894194 35.1509 0.69782 34.9551 0.648726C34.7756 0.599632 34.6613 0.796008 34.5307 0.91056C34.3512 1.07421 34.2859 1.31968 34.0901 1.46696C33.731 1.76152 33.323 1.9579 32.9313 2.18701C32.8497 2.2361 32.7191 2.21974 32.6865 2.31792C32.6212 2.57976 32.3601 2.62885 32.1969 2.77613C31.8705 3.03797 31.544 2.84159 31.2176 2.77613C31.0381 2.7434 31.1197 2.57976 31.0707 2.48157C31.0218 2.38338 30.9565 2.30156 30.8749 2.21973C30.4995 1.87608 30.1078 1.54878 29.7651 1.1724C29.5529 0.926925 29.3244 0.714185 29.2102 0.403256C29.1449 0.223245 28.998 0.059595 28.7858 0.010501C28.59 -0.0385931 28.4594 0.0923265 28.3778 0.239609C28.1656 0.599632 28.0351 0.992385 27.8229 1.36877C27.676 1.63061 27.5944 1.90881 27.3822 2.13791C27.1864 2.35065 26.9742 2.54703 26.811 2.7925C26.7131 2.95615 26.5499 2.98888 26.3214 2.97251C26.0439 2.97251 25.8318 2.77613 25.5543 2.77613C25.4074 2.77613 25.2932 2.66158 25.2769 2.49793C25.2769 2.38338 25.2116 2.33429 25.0973 2.35065C24.7056 2.41611 24.3955 2.25246 24.0854 2.00699C23.9059 1.85971 23.7101 1.6797 23.4653 1.63061C23.1225 1.54878 22.8451 1.35241 22.6329 1.05784C22.5513 0.94329 22.4697 0.861466 22.3065 0.894195C22.1433 0.926925 21.9311 0.943289 21.9311 1.15603C21.9311 1.48332 21.8005 1.71243 21.6537 1.99063C21.3925 2.4652 21.2456 3.00524 20.8213 3.38163C20.7887 3.41436 20.7887 3.46345 20.756 3.49618C20.6254 3.77438 20.5112 4.03621 20.3806 4.31441C20.2011 4.67444 19.7931 4.87081 19.4014 4.80535C18.9281 4.72353 18.4874 4.55988 18.0304 4.4126C17.1654 4.1344 16.2515 4.00349 15.3865 3.67619C15.2559 3.6271 15.0927 3.67619 15.0111 3.80711C14.7663 4.21623 14.6357 4.65807 14.6031 5.14901C14.5868 5.34539 14.7173 5.60722 14.4236 5.72178C14.4236 5.72178 14.4236 5.78724 14.4236 5.81996C14.5215 6.31091 14.4072 6.78548 14.2767 7.24369C14.2114 7.45643 14.1787 7.73463 13.836 7.78372C13.2811 7.86555 12.7425 7.7019 12.1876 7.83282C11.8775 7.89828 11.5348 7.93101 11.2084 7.86555C10.8656 7.80009 10.5229 7.86555 10.1802 7.80009C9.96799 7.751 9.7395 7.73463 9.52733 7.7019C9.28252 7.65281 8.90714 7.84918 8.8745 8.07829C8.84186 8.38922 8.72762 8.68378 8.72762 9.01108C8.72762 9.55111 8.77658 10.0911 8.7929 10.6312C8.7929 11.0567 9.00507 11.564 8.56441 11.9076C8.56441 11.9076 8.56441 11.9404 8.56441 11.9567C8.41752 12.4313 8.38487 12.464 7.87893 12.4149C7.71572 12.4149 7.60148 12.4149 7.53619 12.5786C7.50355 12.6604 7.4546 12.7259 7.38931 12.644C7.22611 12.4477 7.07922 12.5458 6.93233 12.644C6.83441 12.6931 6.72016 12.7422 6.60591 12.7259C6.49167 12.7095 6.37743 12.7586 6.2795 12.8241C5.92044 13.0859 5.51242 13.0859 5.1044 13.1022C4.9412 13.1022 4.82695 13.1677 4.74535 13.2986C4.64742 13.4459 4.58214 13.6096 4.48422 13.7568C4.43526 13.8387 4.41893 13.9205 4.40261 14.0023C4.40261 14.346 4.50054 14.6733 4.59846 15.0006C4.77799 15.557 4.89223 16.1133 5.07176 16.6697C5.15336 16.9479 5.08808 17.2425 5.16969 17.5043C5.23497 17.7007 5.26761 17.8971 5.26761 18.1098C5.26761 18.6499 5.21865 18.7481 4.69638 18.8953C4.5495 18.9444 4.41893 19.0263 4.43525 19.1572C4.50053 19.5336 4.28837 19.3208 4.19045 19.2881C3.91299 19.1735 3.48865 19.2717 3.2928 19.5008C3.16223 19.6645 3.03167 19.8281 2.78686 19.7954C2.68893 19.7954 2.59101 19.8445 2.49308 19.9427C2.31356 20.1063 2.0361 20.0245 1.84025 20.2045C1.82393 20.2209 1.77497 20.1718 1.74233 20.1227C1.70969 20.0736 1.66072 20.0736 1.59544 20.09C1.22006 20.1554 0.975254 20.6136 1.15478 20.9573C1.38327 21.3991 1.67704 21.8246 1.9545 22.2337C2.24827 22.6592 2.54204 23.0683 2.65629 23.592C2.65629 23.6575 2.70526 23.7066 2.7379 23.7557C2.95007 23.952 3.04798 24.1975 3.09694 24.4921C3.21119 25.0976 3.08063 25.3594 2.54204 25.6703C2.23195 25.8503 1.98714 26.1285 1.74233 26.3904C1.62809 26.5049 1.61176 26.7013 1.36695 26.5867C1.33431 26.5704 1.23638 26.6358 1.18742 26.6686C1.08949 26.734 0.991574 26.7831 0.861008 26.734C0.714121 26.6849 0.681475 26.7668 0.665155 26.8977C0.616192 27.1268 0.567226 27.3723 0.240811 27.3723C0.159207 27.3723 0.126568 27.4377 0.077606 27.5032C-0.167205 27.8468 0.208179 28.7305 0.632518 28.7796C0.763085 28.7796 0.795722 28.8614 0.844684 28.9433C0.97525 29.1724 1.08949 29.3851 1.30166 29.5488C1.49751 29.7124 1.70969 29.8761 1.85658 30.0724C2.00346 30.2524 2.15034 30.4652 2.1177 30.6943C2.08506 30.8252 2.11771 30.8416 2.19931 30.8907C2.57469 31.087 2.55836 31.4798 2.62364 31.8071C2.6726 31.9871 2.47676 32.0198 2.37884 32.1016C2.32988 32.1344 2.32988 32.1998 2.32988 32.2489C2.24828 32.7399 2.00345 33.149 1.6444 33.4926C1.54647 33.5908 1.35063 33.5417 1.31799 33.689C1.2527 33.9181 1.04053 34.0327 0.893644 34.1472C0.501946 34.4582 0.59987 34.8673 0.59987 35.2437C0.59987 35.4564 0.812045 35.6855 1.0895 35.7673C1.33431 35.8328 1.57911 35.9146 1.75864 36.1274C1.97081 36.3728 2.23195 36.5692 2.49308 36.7656C2.78686 36.9947 3.06431 37.2565 3.40704 37.4529C3.88035 37.7147 4.04355 38.2057 3.86402 38.7293C3.79874 38.9257 3.81506 39.0894 4.02723 39.1712C4.07619 39.1875 4.17412 39.1712 4.17412 39.253C4.17412 39.3348 4.09251 39.3676 4.04355 39.4003C3.94563 39.4494 3.86402 39.4658 3.81506 39.613C3.71714 39.9403 3.66818 40.284 3.6029 40.6113C3.50497 41.0368 3.27648 41.4131 3.08063 41.8059C2.99903 41.9859 2.68893 42.1823 3.01535 42.4278C3.01535 42.4278 3.01535 42.4769 3.01535 42.5096C3.04799 42.7223 3.04799 42.7223 3.26016 42.6569C3.32545 42.6405 3.3744 42.6732 3.43968 42.706C3.60289 42.8041 3.7661 42.8205 3.94563 42.8696C4.30469 42.9514 4.66374 43.0169 4.99016 43.2296C5.23497 43.3769 5.47978 43.5242 5.74091 43.606C5.98572 43.6878 6.21421 43.7697 6.42638 43.9169C6.68751 44.097 6.62224 44.3752 6.62224 44.6206C6.62224 44.9806 6.80177 45.2916 6.7528 45.6516C6.72016 45.9134 6.78545 46.1589 6.81809 46.4044C6.85073 46.7153 6.91601 47.0426 6.85073 47.3535C6.7528 47.7463 6.60591 48.1063 6.85073 48.5154C7.04658 48.8591 7.40563 49.1373 7.78101 49.0718C8.43384 48.9573 9.07034 48.81 9.7395 48.8918C10.1475 48.9409 10.5555 48.9082 10.9799 48.9245C11.1431 48.9245 11.2737 49.0391 11.29 49.17C11.3063 49.3664 11.4532 49.5464 11.3716 49.7591C11.3389 49.841 11.4042 49.8737 11.4532 49.9064C11.5674 49.9555 11.5837 50.0537 11.6001 50.1683C11.7306 50.7083 11.9265 51.232 11.8612 51.8047C11.8612 51.8702 11.8938 51.952 11.9102 52.0338C12.0407 52.5411 12.1223 53.0484 11.8612 53.5557C11.7959 53.6867 11.8612 53.7685 11.9918 53.7685C12.0897 53.7685 12.1713 53.8176 12.2529 53.8176C12.4977 53.8176 12.7425 53.9321 13.0036 53.8176C13.3301 53.6703 13.6728 53.5394 14.0155 53.4412C14.4725 53.3103 14.8969 53.0812 15.3865 53.0975C15.7455 53.0975 15.8435 53.163 16.0067 53.4903C16.1046 53.6867 16.1046 53.8994 16.2025 54.0794C16.3821 54.374 16.5453 54.6849 16.6758 54.9958C16.888 55.5359 17.1981 56.0432 17.345 56.6159C17.4103 56.8614 17.753 57.0414 17.9325 56.9105C18.161 56.7632 18.4221 56.6814 18.667 56.5341C19.1729 56.2559 19.6136 55.8959 20.2011 55.765C20.6907 55.6504 21.1477 55.4049 21.6537 55.3231C21.8985 55.274 22.0454 55.2904 22.1759 55.4704C22.535 55.9941 22.9104 56.485 23.2204 57.0251C23.4489 57.4178 23.7101 57.7615 23.9386 58.1542C23.9875 58.2524 24.0854 58.3179 24.1997 58.3342C24.673 58.3833 25.1137 58.547 25.5543 58.1051C26.2071 57.4505 26.9416 56.8941 27.725 56.3868C28.1167 56.1414 28.3615 56.1414 28.7695 56.3541C29.2755 56.6323 29.6345 57.0742 30.0915 57.4014C30.5974 57.7615 31.0544 58.1542 31.544 58.5306C31.8378 58.7597 31.9684 58.727 32.2132 58.4488C32.3111 58.3342 32.3274 58.187 32.458 58.0888C32.7191 57.8433 32.9313 57.5487 33.1435 57.2705C33.4209 56.9105 33.6657 56.5177 33.9269 56.1414C34.1717 55.7977 34.4818 55.6995 34.9061 55.8795C35.3957 56.0923 35.9017 56.2723 36.3913 56.4687C37.1257 56.7632 37.9091 56.9432 38.6273 57.2542C38.7578 57.3196 38.921 57.3033 39.0353 57.2051C39.2801 56.9923 39.5575 56.8123 39.5902 56.4196C39.6065 56.2232 39.6555 56.0104 39.7534 55.7977C40.0145 55.1758 40.2593 54.5376 40.5205 53.9158C40.6837 53.5394 40.9611 53.343 41.3691 53.3103C41.7608 53.2775 42.0872 53.4576 42.4626 53.5066C42.9849 53.5721 43.4745 53.7521 43.9968 53.7358C44.0294 53.7358 44.0621 53.7358 44.0947 53.7685C44.3069 53.9485 44.5517 53.8994 44.7802 53.8994C44.976 53.8994 45.1229 53.7848 45.1882 53.6048C45.3024 53.2448 45.3677 52.8357 45.3188 52.4757C45.2535 51.8702 45.384 51.2811 45.4167 50.6756C45.4167 50.4792 45.4167 50.2501 45.5473 50.0701C45.7757 49.7428 46.2654 49.53 46.6734 49.6773C47.212 49.8573 47.7669 49.7591 48.3055 49.7919C48.7298 49.8246 49.1705 49.7264 49.5785 49.9064C49.709 49.9555 49.8559 49.9719 50.0028 49.9719C50.2803 49.9719 50.3293 49.7755 50.3782 49.5464C50.4598 49.1045 50.4761 48.6627 50.3293 48.2536C50.215 47.9427 50.166 47.6154 50.1334 47.3044C50.0844 46.7808 50.0844 46.2407 50.1007 45.7171C50.1007 45.3407 50.3292 45.0625 50.6393 45.0134C50.9984 44.9479 51.3574 44.8661 51.7165 44.8006C51.945 44.7515 52.1572 44.637 52.402 44.637C52.7284 44.637 52.9569 44.4733 53.1038 44.2115C53.267 43.8842 53.4791 43.5569 53.7403 43.3115C53.9688 43.0987 54.083 42.9351 53.9035 42.5914C53.5607 41.9041 53.3812 41.1677 53.218 40.4313C53.169 40.2349 53.0874 40.0058 53.1201 39.8258C53.1527 39.613 53.3649 39.4494 53.5444 39.3185C53.8545 39.0894 54.2299 38.9584 54.5726 38.7948C54.997 38.5984 55.405 38.3366 55.8783 38.2711C55.9109 38.2711 55.9272 38.2711 55.9436 38.2384C56.0905 38.1075 56.3027 38.0748 56.4495 37.9275C56.5638 37.8293 56.6127 37.6329 56.8249 37.6493C56.8902 37.6493 57.086 37.4856 56.8902 37.3383C56.8575 37.322 56.8902 37.2402 56.8739 37.1911C56.8412 36.9947 56.8575 36.7656 56.5801 36.7001C56.5148 36.7001 56.5148 36.6019 56.4985 36.5528C56.319 36.2255 56.27 35.8655 56.0089 35.571C55.7804 35.3418 55.5519 35.08 55.4376 34.7364C55.356 34.4909 55.3071 34.2291 55.2091 33.9836C55.0949 33.689 55.1765 33.4435 55.356 33.2144C55.5192 33.0181 55.6988 32.8544 55.911 32.7399C56.1721 32.5926 56.4332 32.4289 56.629 32.2326C57.0371 31.8234 57.6246 31.6762 57.9347 31.1689C57.9347 31.1689 57.9837 31.1689 58 31.1689V30.9561C57.7878 30.9234 57.8205 30.7106 57.8531 30.6452L57.8694 30.4324ZM54.2625 30.7106C54.2952 31.5616 54.1646 32.3962 54.0014 33.2308C53.9198 33.6236 53.9524 34.0327 53.8872 34.4091C53.7729 34.9655 53.6913 35.5382 53.4955 36.0783C53.2506 36.7165 53.1038 37.3874 52.8589 38.0257C52.6631 38.5657 52.402 39.1057 52.2061 39.6458C52.0429 40.104 51.8308 40.5458 51.6512 40.9877C51.5043 41.3313 51.3738 41.7077 51.1126 42.0186C50.8352 42.3459 50.623 42.7387 50.3619 43.0987C50.2803 43.2133 50.1987 43.4096 49.9702 43.2624C49.8559 43.1969 49.7091 43.426 49.8396 43.5733C50.0844 43.8842 49.8396 44.0315 49.6927 44.2115C49.1052 44.997 48.5176 45.7825 47.8974 46.5189C47.62 46.8462 47.2936 47.1735 46.9835 47.4845C46.5755 47.8936 46.1185 48.2209 45.7105 48.6136C45.3351 48.9736 44.9271 49.3337 44.4864 49.6282C44.0947 49.8901 43.7683 50.2501 43.3603 50.4956C42.9359 50.741 42.5932 51.101 42.1199 51.2647C41.9077 51.3301 41.6955 51.4611 41.5323 51.592C41.2386 51.8374 40.9121 51.9847 40.6184 52.1975C40.4062 52.3448 40.1614 52.4266 39.9329 52.5248C39.4106 52.7539 38.921 53.0484 38.4151 53.2775C38.2845 53.343 38.1539 53.2775 38.0234 53.343C37.599 53.523 37.1584 53.6539 36.7177 53.8012C36.4076 53.8994 36.0975 54.063 35.7711 54.0794C35.7548 54.0794 35.7385 54.0794 35.7222 54.0794C35.5426 54.3249 35.3305 54.3085 35.053 54.3085C34.7266 54.3085 34.4002 54.4558 34.0574 54.4558C33.6331 54.4558 33.274 54.7176 32.8497 54.734C32.7844 54.734 32.7355 54.7667 32.6702 54.7667C32.1642 54.734 31.6746 54.8322 31.185 54.9795C30.9565 55.0449 30.728 55.0449 30.4995 55.0122C30.32 54.9958 30.1241 54.9958 29.9446 55.0122C29.7161 55.0449 29.4876 55.0613 29.2754 54.9631C29.1449 54.8976 28.998 54.9304 28.8511 54.9631C28.4268 54.9958 28.0024 55.0122 27.5944 55.0449C27.2843 55.0613 26.9905 54.9467 26.6805 54.9304C26.4683 54.9304 26.5009 54.7013 26.4683 54.554C26.3704 54.6031 26.2561 54.554 26.2724 54.7667C26.2724 54.914 25.995 54.8976 25.8318 54.9631C25.5543 55.0613 25.3258 54.8813 25.0647 54.8322C24.3466 54.7013 23.6611 54.4885 22.943 54.4067C22.7798 54.3903 22.6166 54.3085 22.4697 54.2267C21.9638 53.9485 21.3599 53.9485 20.8539 53.703C20.4949 53.523 20.0705 53.5885 19.7604 53.3103C19.7278 53.2775 19.6625 53.2612 19.6136 53.2448C18.5527 53.0484 17.6714 52.4593 16.7248 51.9847C16.6758 51.952 16.5942 51.9029 16.5942 51.8538C16.5453 51.5265 16.2841 51.5756 16.072 51.5102C15.7945 51.4283 15.5007 51.3629 15.3212 51.0847C15.2886 51.0356 15.2233 50.9865 15.1417 50.9865C14.8969 51.0192 14.7337 50.8556 14.6031 50.7083C14.4562 50.561 14.3093 50.4465 14.1135 50.3646C13.7544 50.2174 13.5586 49.89 13.2648 49.6609C13.1832 49.5955 13.1179 49.5137 13.0363 49.4482C12.2855 48.8591 11.6001 48.2209 10.8983 47.5826C10.4413 47.1735 9.98431 46.748 9.47837 46.388C9.07035 46.1098 8.85818 45.6516 8.66233 45.2098C8.56441 44.9807 8.4828 44.7515 8.28695 44.5879C8.28695 44.5879 8.28696 44.5879 8.27064 44.5715C8.07479 44.0479 7.65044 43.6878 7.37299 43.2133C7.09554 42.7223 6.73647 42.2805 6.47534 41.7732C6.26317 41.3804 5.98572 41.004 5.90412 40.5295C5.87148 40.3494 5.74091 40.1858 5.67563 39.9894C5.54506 39.5639 5.34921 39.1712 5.20232 38.7457C4.99015 38.1566 4.74535 37.5838 4.59846 36.9783C4.53318 36.7328 4.46789 36.471 4.33733 36.2583C4.19044 35.9964 4.1578 35.7019 4.12516 35.4237C4.0762 34.9818 3.91299 34.5891 3.83139 34.1636C3.7661 33.7872 3.70082 33.3945 3.66818 33.0181C3.63554 32.6253 3.71714 32.2326 3.6029 31.8234C3.50497 31.4798 3.65186 31.1034 3.55394 30.7434C3.42337 30.2688 3.50496 29.7779 3.50496 29.3033C3.50496 29.1887 3.50497 29.0578 3.55394 28.9433C3.57026 28.8942 3.60289 28.8287 3.58657 28.796C3.30912 28.305 3.58657 27.8305 3.63553 27.3559C3.65185 27.0613 3.6845 26.7831 3.70082 26.4886C3.71714 26.194 3.70082 25.8831 3.88035 25.6212C3.89667 25.5885 3.91298 25.5394 3.91298 25.4903C3.81506 24.9994 4.02724 24.5248 4.12516 24.0502C4.22309 23.5593 4.32101 23.0683 4.48422 22.5938C4.74535 21.8574 4.95751 21.0882 5.26761 20.3682C5.47978 19.8772 5.65931 19.3863 5.90412 18.9117C6.23053 18.2899 6.49167 17.6353 6.86705 17.0461C7.34035 16.2934 7.66676 15.4588 8.28695 14.8042C8.51544 14.5423 8.76026 14.2641 8.90715 13.9205C9.05403 13.6096 9.36413 13.4295 9.60894 13.2004C9.75583 13.0695 9.91903 12.9386 10.017 12.7586C10.1965 12.464 10.3923 12.1858 10.7024 12.0222C10.7514 11.9894 10.8004 11.9404 10.833 11.8913C11.2084 11.3349 11.649 10.8439 12.2366 10.5003C12.7099 10.2221 13.0689 9.84568 13.428 9.43656C13.5422 9.30564 13.2648 9.20745 13.428 9.12563C13.5586 9.06017 13.5586 9.3711 13.6891 9.25655C13.8034 9.15836 13.9503 9.15836 14.0319 9.04381C14.2114 8.8147 14.4888 8.71651 14.7173 8.56923C15.1417 8.29103 15.6313 8.09466 16.0067 7.7019C16.2188 7.48916 16.5453 7.35825 16.839 7.22733C17.3123 7.01459 17.7367 6.70366 18.2263 6.52365C18.9444 6.27818 19.6136 5.90179 20.348 5.67268C20.5928 5.60722 20.805 5.49267 21.0824 5.50904C21.2783 5.50904 21.4904 5.34539 21.7026 5.27993C22.4371 5.0181 23.2041 4.82172 23.9712 4.65807C24.4771 4.54352 24.9831 4.42897 25.5054 4.39624C26.2071 4.34714 26.8926 4.21623 27.5944 4.19986C28.1983 4.19986 28.7858 4.10167 29.3897 4.19986C29.7161 4.24896 30.0752 4.16713 30.4179 4.19986C31.0055 4.23259 31.5767 4.26532 32.1479 4.39624C32.4417 4.4617 32.7355 4.47806 33.0456 4.52715C34.1554 4.70717 35.2325 4.969 36.2771 5.36175C36.5708 5.47631 36.8646 5.49267 37.1584 5.5745C37.648 5.70541 38.1213 5.88542 38.5783 6.06543C39.4596 6.42546 40.292 6.88367 41.1407 7.30915C42.0709 7.78373 42.9686 8.32376 43.8009 8.97835C44.2416 9.32201 44.6986 9.66566 45.1229 10.0584C45.5309 10.4348 45.939 10.8276 46.3959 11.1549C46.706 11.384 46.9672 11.6949 47.2283 11.9895C47.571 12.3658 47.8974 12.7586 48.2565 13.1186C48.534 13.3968 48.7298 13.7241 48.942 14.0514C49.2357 14.4605 49.5295 14.8533 49.8233 15.2788C49.8886 15.3769 49.9538 15.4588 50.0028 15.5733C50.4435 16.3261 50.9331 17.0461 51.3411 17.7989C51.6839 18.4208 51.994 19.0426 52.2551 19.6972C52.4346 20.1554 52.6631 20.6136 52.761 21.0882C52.859 21.5792 53.1038 22.021 53.1527 22.5119C53.218 23.0356 53.5118 23.5102 53.6097 24.0175C53.7076 24.5248 53.8708 25.0157 53.9035 25.5558C53.9198 26.0467 54.0667 26.5377 54.132 27.045C54.2136 27.6668 54.2462 28.2887 54.2789 28.9105C54.2952 29.516 54.2299 30.1215 54.2462 30.727L54.2625 30.7106Z" fill="#3B3935"/>
<path d="M52.1898 27.209C52.1081 26.6035 51.9612 25.998 51.9449 25.3761C51.9449 25.1634 51.896 24.9507 51.798 24.7707C51.6185 24.4106 51.7164 23.9852 51.4716 23.6579C51.4716 23.6415 51.4716 23.5924 51.4716 23.5597C51.488 23.1833 51.3084 22.8396 51.2758 22.4632C51.2594 22.2014 50.982 21.9396 50.9004 21.645C50.7372 21.1213 50.574 20.5813 50.3781 20.0576C50.3292 19.9267 50.3292 19.7467 50.2476 19.6976C49.9538 19.5176 49.9538 19.1248 49.6926 18.9285C49.6274 18.8794 49.5947 18.7648 49.5784 18.683C49.5295 18.4375 49.3826 18.2411 49.301 18.0284C49.1214 17.6029 48.795 17.2593 48.5992 16.8502C48.436 16.5229 48.1911 16.261 48.0116 15.9501C47.7668 15.5246 47.3098 15.23 47.0977 14.7718C46.8692 14.2645 46.4938 13.8718 46.0858 13.5118C45.6614 13.1517 45.4166 12.6117 44.878 12.3499C44.8454 12.3499 44.8291 12.3008 44.8128 12.268C44.568 12.0389 44.3558 11.7607 44.0783 11.5971C43.6377 11.3516 43.3602 10.9425 42.9685 10.6479C42.6911 10.4352 42.5115 10.1079 42.1198 10.0424C41.9566 10.0097 41.7444 9.91153 41.6628 9.76424C41.418 9.43695 41.0427 9.35513 40.7326 9.15875C40.2919 8.88055 39.7207 8.84782 39.3616 8.40598C39.329 8.37325 39.2474 8.37325 39.1984 8.35688C38.7741 8.22596 38.3824 8.01322 37.958 7.89867C37.7622 7.84958 37.6316 7.58774 37.4031 7.55501C37.2236 7.52228 37.0441 7.47319 36.8972 7.35864C36.7993 7.27681 36.6687 7.19499 36.5055 7.30954C36.4402 7.35864 36.3586 7.34227 36.2933 7.29318C35.9669 7.06407 35.6078 6.98225 35.2325 6.99861C35.1509 6.99861 35.0693 6.99861 35.0203 6.94952C34.8734 6.80224 34.6939 6.75314 34.5143 6.67132C34.4164 6.63859 34.3185 6.57313 34.2695 6.45858C34.2369 6.36039 34.1879 6.37676 34.09 6.40949C33.8452 6.52404 33.6004 6.5404 33.3229 6.40949C33.1108 6.3113 32.9312 6.09856 32.6538 6.21311C32.4743 6.29493 32.2784 6.27857 32.0989 6.16401C31.9683 6.08219 31.8051 6.11492 31.6582 6.19674C31.5113 6.27857 31.3971 6.2622 31.2828 6.13129C31.1849 6.00037 31.0707 5.984 30.9238 6.11492C30.6627 6.34403 29.9282 6.29493 29.6997 6.0331C29.6181 5.95127 29.5528 5.91855 29.4712 6.00037C29.2917 6.21311 29.1611 6.24584 28.9163 6.09856C28.8184 6.0331 28.7205 5.95127 28.5899 6.00037C28.2961 6.09856 28.0024 6.04946 27.7249 6.06583C27.5291 6.06583 27.2843 6.01673 27.1537 6.14765C26.9578 6.36039 26.713 6.3113 26.4845 6.36039C26.2724 6.40948 26.0439 6.3113 25.8644 6.36039C25.4727 6.50767 25.0646 6.47494 24.6729 6.52404C23.9711 6.60586 23.2857 6.75314 22.6165 6.91679C22.437 6.96588 22.3064 7.17862 22.0453 7.01498C21.9637 6.96588 21.7515 7.01498 21.6046 6.99861C21.5393 6.99861 21.4904 6.96588 21.4251 7.03134C21.1966 7.34227 20.8212 7.45682 20.4948 7.62047C20.0705 7.84958 19.5482 7.84958 19.1565 8.17687C19.1402 8.17687 19.1076 8.17687 19.0912 8.2096C18.7648 8.37325 18.4221 8.52053 18.1446 8.766C18.0957 8.79873 18.0793 8.84782 18.0141 8.86419C17.7366 8.92965 17.4102 8.92965 17.2633 9.25694C17.2633 9.28967 17.198 9.3224 17.1654 9.3224C16.7574 9.37149 16.4636 9.61696 16.1861 9.8788C15.9087 10.1243 15.5333 10.2225 15.2885 10.5334C14.9784 10.9261 14.4561 11.0407 14.0971 11.4007C13.8849 11.6135 13.6075 11.8589 13.2647 11.9244C13.1831 11.9407 13.1505 12.0226 13.1505 12.1044C13.1505 12.2844 13.0362 12.3499 12.9057 12.4153C12.6935 12.5299 12.4324 12.6608 12.3508 12.8735C12.2202 13.2336 11.9101 13.4136 11.6979 13.6754C11.5674 13.8227 11.4042 13.9045 11.2736 14.0845C11.1593 14.2318 11.0941 14.4282 10.9308 14.5427C10.735 14.6736 10.5555 14.7882 10.4902 15.05C10.4576 15.1646 10.3596 15.2464 10.2617 15.3119C10.1638 15.3773 10.0332 15.4755 10.0006 15.5737C9.93528 15.7864 9.77208 15.901 9.60887 15.9992C9.49463 16.081 9.41302 16.1628 9.4783 16.3428C9.55991 16.5556 9.44566 16.7192 9.20085 16.7683C9.03764 16.8011 8.98868 16.8665 8.97236 17.0302C8.97236 17.3084 8.84179 17.5375 8.59698 17.7011C8.35217 17.8648 8.25424 18.0611 8.30321 18.3557C8.30321 18.4539 8.3032 18.5357 8.2216 18.6175C7.9115 18.9776 7.73198 19.4358 7.43821 19.8122C7.34028 19.9431 7.20972 20.0904 7.25868 20.2867C7.25868 20.3686 7.19339 20.434 7.12811 20.4504C6.9649 20.4995 6.99754 20.5813 7.06282 20.6958C7.22603 20.9577 7.17708 21.2523 6.91594 21.4486C6.86698 21.4814 6.8017 21.5141 6.81802 21.5795C6.85066 21.7759 6.78537 21.9559 6.70377 22.1196C6.47528 22.6596 6.4916 23.2978 6.08358 23.7724C6.00198 23.8706 6.03462 23.9361 6.08358 24.0179C6.14886 24.0997 6.23047 24.2306 6.14887 24.2961C5.95302 24.4597 5.87142 24.6234 5.9367 24.8688C5.9367 24.8852 5.92037 24.9343 5.88773 24.9507C5.7898 25.0325 5.80613 25.147 5.80613 25.2616C5.80613 25.3762 5.80612 25.5071 5.77348 25.6053C5.6266 25.9162 5.64292 26.2435 5.6266 26.5708C5.59396 26.9963 5.6266 27.4381 5.47971 27.8472C5.3165 28.2891 5.26754 28.7309 5.36546 29.2055C5.43075 29.4837 5.52867 29.5328 5.77348 29.3528C5.83877 29.3037 5.90406 29.3037 5.98566 29.2873C6.08358 29.2709 6.16518 29.3037 6.1815 29.4019C6.1815 29.5 6.08358 29.4837 6.03462 29.5C5.92038 29.5328 5.7898 29.5328 5.65924 29.5491C5.43075 29.5819 5.33283 29.7128 5.39811 29.9419C5.43075 30.0892 5.43075 30.2365 5.36546 30.351C5.28386 30.5147 5.28386 30.6619 5.36546 30.842C5.43075 30.9729 5.4634 31.1365 5.41444 31.2838C5.34915 31.4802 5.38178 31.6602 5.47971 31.8402C5.54499 31.9711 5.59397 32.1348 5.59397 32.2984C5.59397 32.953 5.75717 33.5912 5.85509 34.2294C5.92037 34.6877 6.08358 35.1295 6.08358 35.6041C6.08358 35.7841 6.08358 35.9641 6.19783 36.1277C6.55688 36.586 6.67113 37.1587 6.83433 37.6988C6.94858 38.0424 6.98122 38.4024 7.12811 38.7297C7.20971 38.9261 7.42188 39.0734 7.47084 39.2534C7.58509 39.5807 7.76463 39.8753 7.86255 40.2189C8.00944 40.6935 8.43378 41.0044 8.56434 41.4954C8.62963 41.7245 8.87444 41.8227 8.97236 42.019C9.29878 42.6245 9.65783 43.1973 10.1311 43.7046C10.6044 44.2283 11.0125 44.7847 11.4694 45.3083C12.0733 45.9956 12.7261 46.6502 13.4116 47.2721C13.8033 47.6321 14.2113 47.9921 14.652 48.3031C14.9947 48.5485 15.3538 48.7613 15.7128 48.9904C16.1698 49.285 16.6105 49.6286 17.1164 49.8741C17.9325 50.2505 18.6343 50.8069 19.4993 51.1014C20.0542 51.2814 20.5764 51.5596 21.1313 51.7397C21.5883 51.8869 22.0453 52.0833 22.5349 52.1815C23.253 52.3288 23.9385 52.607 24.6729 52.6888C24.8851 52.7215 25.1136 52.8361 25.2931 52.8361C25.6522 52.8361 25.9786 52.7706 26.256 53.0652C26.3213 53.1306 26.4029 53.0816 26.4682 53.0816C26.6477 53.0816 26.762 52.8688 26.9578 52.9179C27.17 52.967 27.3985 52.9506 27.627 52.967C28.6062 53.0325 29.5855 53.0161 30.5484 52.967C31.2339 52.9179 31.903 52.7379 32.5885 52.7543C32.8333 52.7543 33.0292 52.6233 33.274 52.607C33.3393 52.6397 33.3882 52.6233 33.4372 52.607C33.8126 52.4924 34.1716 52.3615 34.5633 52.2797C35.2162 52.1651 35.8526 51.9524 36.4892 51.7397C37.2399 51.4942 37.9743 51.1505 38.7088 50.8396C39.786 50.3978 40.7652 49.7432 41.7608 49.1377C41.9403 49.0231 42.1035 48.9086 42.2504 48.7613C42.381 48.6304 42.5931 48.7122 42.7074 48.5813C43.0991 48.1885 43.5887 47.9267 43.9804 47.5503C44.3884 47.1575 44.8454 46.8139 45.2371 46.3884C45.6451 45.9466 46.0368 45.472 46.5591 45.1447C46.6896 45.0629 46.8365 44.9319 46.8855 44.801C47.0814 44.2774 47.4894 43.9173 47.7831 43.4755C48.1585 42.87 48.6808 42.3791 48.9256 41.7081C48.9256 41.6917 48.9419 41.659 48.9582 41.6426C49.203 41.3154 49.3989 40.9553 49.5784 40.5953C50.0517 39.6952 50.4434 38.7461 50.8351 37.8133C51.0473 37.306 51.2105 36.766 51.3247 36.2259C51.4879 35.5386 51.7328 34.884 51.847 34.1803C51.9449 33.5749 52.0755 32.9694 52.1245 32.3475C52.1245 32.1839 52.0755 32.0038 52.1245 31.8566C52.255 31.4311 52.2387 30.9892 52.2387 30.5474C52.2387 29.6801 52.255 28.8127 52.2387 27.9618C52.2387 27.7163 52.2387 27.4545 52.2061 27.2254L52.1898 27.209Z" fill="#3B3935"/>
<path d="M23.28 28.7V28.3L24.98 27.09H25.35V28.05L26.59 28V28.7H25.35V31.56C25.35 31.8867 25.3867 32.1167 25.46 32.25C25.5333 32.3833 25.6833 32.45 25.91 32.45C26.0767 32.45 26.3 32.39 26.58 32.27L26.74 32.83C26.34 33.0433 25.9167 33.15 25.47 33.15C24.3633 33.15 23.81 32.6367 23.81 31.61V28.7H23.28ZM27.1293 30.44C27.1293 29.6533 27.3493 29.0267 27.7893 28.56C28.236 28.0867 28.8393 27.85 29.5993 27.85C30.3726 27.85 30.956 28.1133 31.3493 28.64C31.7493 29.1667 31.9493 29.8167 31.9493 30.59H28.6693C28.716 31.0833 28.8926 31.51 29.1993 31.87C29.506 32.2233 29.8993 32.4 30.3793 32.4C30.7393 32.4 31.126 32.3233 31.5393 32.17L31.7493 32.74C31.1293 33.0133 30.5226 33.15 29.9293 33.15C29.0693 33.15 28.386 32.9 27.8793 32.4C27.3793 31.8933 27.1293 31.24 27.1293 30.44ZM28.6693 29.97L30.3593 29.86C30.3593 29.7 30.3493 29.5533 30.3293 29.42C30.3093 29.28 30.2526 29.1133 30.1593 28.92C29.9926 28.64 29.796 28.5 29.5693 28.5C29.3026 28.5 29.0826 28.6367 28.9093 28.91C28.8093 29.0767 28.7426 29.26 28.7093 29.46C28.676 29.66 28.6626 29.83 28.6693 29.97ZM32.3785 33V32.47L33.2285 32.27V25.91H32.3785V25.38L33.9785 25H34.7685V32.27L35.6185 32.47V33H32.3785ZM36.1737 32.37C36.1737 32.1433 36.257 31.9467 36.4237 31.78C36.597 31.6067 36.8003 31.52 37.0337 31.52C37.267 31.52 37.467 31.6033 37.6337 31.77C37.8003 31.9367 37.8837 32.1367 37.8837 32.37C37.8837 32.59 37.8003 32.79 37.6337 32.97C37.467 33.1433 37.267 33.23 37.0337 33.23C36.8003 33.23 36.597 33.1433 36.4237 32.97C36.257 32.79 36.1737 32.59 36.1737 32.37Z" fill="#F3F0E8"/>
</svg>
